<mxfile host="app.diagrams.net" agent="Mozilla/5.0 (Windows NT 10.0; Win64; x64) AppleWebKit/537.36 (KHTML, like Gecko) Chrome/130.0.0.0 Safari/537.36 Edg/130.0.0.0" version="24.8.3">
  <diagram name="Page-1" id="yk3O-zCYYSrEch7NL9_1">
    <mxGraphModel grid="1" page="1" gridSize="10" guides="1" tooltips="1" connect="1" arrows="1" fold="1" pageScale="1" pageWidth="1169" pageHeight="1654" math="0" shadow="0">
      <root>
        <mxCell id="0" />
        <mxCell id="1" parent="0" />
        <mxCell id="ei9Jw1yKz31l8ufhNIbt-2" style="edgeStyle=orthogonalEdgeStyle;rounded=0;orthogonalLoop=1;jettySize=auto;html=1;" edge="1" parent="1" source="ei9Jw1yKz31l8ufhNIbt-1">
          <mxGeometry relative="1" as="geometry">
            <mxPoint x="380" y="160" as="targetPoint" />
          </mxGeometry>
        </mxCell>
        <mxCell id="ei9Jw1yKz31l8ufhNIbt-1" value="&lt;font size=&quot;3&quot;&gt;START&lt;/font&gt;" style="ellipse;whiteSpace=wrap;html=1;" vertex="1" parent="1">
          <mxGeometry x="320" y="10" width="120" height="80" as="geometry" />
        </mxCell>
        <mxCell id="ei9Jw1yKz31l8ufhNIbt-5" style="edgeStyle=orthogonalEdgeStyle;rounded=0;orthogonalLoop=1;jettySize=auto;html=1;" edge="1" parent="1" source="ei9Jw1yKz31l8ufhNIbt-3">
          <mxGeometry relative="1" as="geometry">
            <mxPoint x="375" y="290" as="targetPoint" />
          </mxGeometry>
        </mxCell>
        <mxCell id="ei9Jw1yKz31l8ufhNIbt-3" value="enter coefficient x&lt;div&gt;enter coefficient of x**2&lt;/div&gt;&lt;div&gt;enter constant C&lt;/div&gt;" style="shape=parallelogram;perimeter=parallelogramPerimeter;whiteSpace=wrap;html=1;fixedSize=1;" vertex="1" parent="1">
          <mxGeometry x="270" y="160" width="210" height="60" as="geometry" />
        </mxCell>
        <mxCell id="ei9Jw1yKz31l8ufhNIbt-7" style="edgeStyle=orthogonalEdgeStyle;rounded=0;orthogonalLoop=1;jettySize=auto;html=1;" edge="1" parent="1" source="ei9Jw1yKz31l8ufhNIbt-6">
          <mxGeometry relative="1" as="geometry">
            <mxPoint x="360" y="420" as="targetPoint" />
          </mxGeometry>
        </mxCell>
        <mxCell id="ei9Jw1yKz31l8ufhNIbt-6" value="&lt;div style=&quot;background-color:#1e1f22;color:#bcbec4&quot;&gt;&lt;pre style=&quot;font-family:&#39;JetBrains Mono&#39;,monospace;font-size:9.8pt;&quot;&gt;D= (b**(&lt;span style=&quot;color:#2aacb8;&quot;&gt;2&lt;/span&gt;) - (&lt;span style=&quot;color:#2aacb8;&quot;&gt;4&lt;/span&gt;*a*c))**(&lt;span style=&quot;color:#2aacb8;&quot;&gt;1&lt;/span&gt;/&lt;span style=&quot;color:#2aacb8;&quot;&gt;2&lt;/span&gt;)&lt;br&gt;&lt;/pre&gt;&lt;/div&gt;" style="shape=parallelogram;perimeter=parallelogramPerimeter;whiteSpace=wrap;html=1;fixedSize=1;" vertex="1" parent="1">
          <mxGeometry x="230" y="290" width="260" height="60" as="geometry" />
        </mxCell>
        <mxCell id="ei9Jw1yKz31l8ufhNIbt-8" value="&lt;div style=&quot;background-color:#1e1f22;color:#bcbec4&quot;&gt;&lt;pre style=&quot;font-family:&#39;JetBrains Mono&#39;,monospace;font-size:9.8pt;&quot;&gt;root1= (-b + D)/ (&lt;span style=&quot;color:#2aacb8;&quot;&gt;2&lt;/span&gt;*a)&lt;br&gt;root2= (-b - D)/ (&lt;span style=&quot;color:#2aacb8;&quot;&gt;2&lt;/span&gt;*a)&lt;/pre&gt;&lt;/div&gt;" style="shape=parallelogram;perimeter=parallelogramPerimeter;whiteSpace=wrap;html=1;fixedSize=1;" vertex="1" parent="1">
          <mxGeometry x="230" y="420" width="250" height="70" as="geometry" />
        </mxCell>
        <mxCell id="ei9Jw1yKz31l8ufhNIbt-20" style="edgeStyle=orthogonalEdgeStyle;rounded=0;orthogonalLoop=1;jettySize=auto;html=1;entryX=0.5;entryY=0;entryDx=0;entryDy=0;" edge="1" parent="1" source="ei9Jw1yKz31l8ufhNIbt-10" target="ei9Jw1yKz31l8ufhNIbt-18">
          <mxGeometry relative="1" as="geometry" />
        </mxCell>
        <mxCell id="ei9Jw1yKz31l8ufhNIbt-10" value="&lt;div style=&quot;background-color:#1e1f22;color:#bcbec4&quot;&gt;&lt;pre style=&quot;font-family:&#39;JetBrains Mono&#39;,monospace;font-size:9.8pt;&quot;&gt;x = root1 &lt;span style=&quot;color:#cf8e6d;&quot;&gt;or &lt;/span&gt;root2&lt;/pre&gt;&lt;/div&gt;" style="shape=parallelogram;perimeter=parallelogramPerimeter;whiteSpace=wrap;html=1;fixedSize=1;" vertex="1" parent="1">
          <mxGeometry x="240" y="540" width="220" height="60" as="geometry" />
        </mxCell>
        <mxCell id="ei9Jw1yKz31l8ufhNIbt-15" value="" style="endArrow=classic;html=1;rounded=0;exitX=0.5;exitY=1;exitDx=0;exitDy=0;entryX=0.532;entryY=0.017;entryDx=0;entryDy=0;entryPerimeter=0;" edge="1" parent="1" source="ei9Jw1yKz31l8ufhNIbt-8" target="ei9Jw1yKz31l8ufhNIbt-10">
          <mxGeometry width="50" height="50" relative="1" as="geometry">
            <mxPoint x="430" y="490" as="sourcePoint" />
            <mxPoint x="480" y="440" as="targetPoint" />
          </mxGeometry>
        </mxCell>
        <mxCell id="ei9Jw1yKz31l8ufhNIbt-22" style="edgeStyle=orthogonalEdgeStyle;rounded=0;orthogonalLoop=1;jettySize=auto;html=1;" edge="1" parent="1" source="ei9Jw1yKz31l8ufhNIbt-18">
          <mxGeometry relative="1" as="geometry">
            <mxPoint x="350" y="790" as="targetPoint" />
          </mxGeometry>
        </mxCell>
        <mxCell id="ei9Jw1yKz31l8ufhNIbt-18" value="&lt;div style=&quot;background-color:#1e1f22;color:#bcbec4&quot;&gt;&lt;pre style=&quot;font-family:&#39;JetBrains Mono&#39;,monospace;font-size:9.8pt;&quot;&gt;&lt;pre style=&quot;font-family: &amp;quot;JetBrains Mono&amp;quot;, monospace; font-size: 9.8pt;&quot;&gt;result = a*x**(&lt;span style=&quot;color: rgb(42, 172, 184);&quot;&gt;2&lt;/span&gt;) + b*x + c&lt;/pre&gt;&lt;/pre&gt;&lt;/div&gt;" style="shape=parallelogram;perimeter=parallelogramPerimeter;whiteSpace=wrap;html=1;fixedSize=1;" vertex="1" parent="1">
          <mxGeometry x="230" y="640" width="240" height="60" as="geometry" />
        </mxCell>
        <mxCell id="ei9Jw1yKz31l8ufhNIbt-23" style="edgeStyle=orthogonalEdgeStyle;rounded=0;orthogonalLoop=1;jettySize=auto;html=1;" edge="1" parent="1" source="ei9Jw1yKz31l8ufhNIbt-21">
          <mxGeometry relative="1" as="geometry">
            <mxPoint x="170" y="950" as="targetPoint" />
            <Array as="points">
              <mxPoint x="170" y="830" />
            </Array>
          </mxGeometry>
        </mxCell>
        <mxCell id="ei9Jw1yKz31l8ufhNIbt-30" value="Y" style="edgeLabel;html=1;align=center;verticalAlign=middle;resizable=0;points=[];" vertex="1" connectable="0" parent="ei9Jw1yKz31l8ufhNIbt-23">
          <mxGeometry x="-0.5565" relative="1" as="geometry">
            <mxPoint as="offset" />
          </mxGeometry>
        </mxCell>
        <mxCell id="ei9Jw1yKz31l8ufhNIbt-31" style="edgeStyle=orthogonalEdgeStyle;rounded=0;orthogonalLoop=1;jettySize=auto;html=1;" edge="1" parent="1" source="ei9Jw1yKz31l8ufhNIbt-21">
          <mxGeometry relative="1" as="geometry">
            <mxPoint x="580" y="940" as="targetPoint" />
            <Array as="points">
              <mxPoint x="580" y="830" />
            </Array>
          </mxGeometry>
        </mxCell>
        <mxCell id="ei9Jw1yKz31l8ufhNIbt-32" value="N" style="edgeLabel;html=1;align=center;verticalAlign=middle;resizable=0;points=[];" vertex="1" connectable="0" parent="ei9Jw1yKz31l8ufhNIbt-31">
          <mxGeometry x="-0.3704" y="-1" relative="1" as="geometry">
            <mxPoint as="offset" />
          </mxGeometry>
        </mxCell>
        <mxCell id="ei9Jw1yKz31l8ufhNIbt-21" value="if D==0" style="rhombus;whiteSpace=wrap;html=1;" vertex="1" parent="1">
          <mxGeometry x="280" y="790" width="140" height="80" as="geometry" />
        </mxCell>
        <mxCell id="ei9Jw1yKz31l8ufhNIbt-25" style="edgeStyle=orthogonalEdgeStyle;rounded=0;orthogonalLoop=1;jettySize=auto;html=1;" edge="1" parent="1" source="ei9Jw1yKz31l8ufhNIbt-24">
          <mxGeometry relative="1" as="geometry">
            <mxPoint x="180" y="1070" as="targetPoint" />
          </mxGeometry>
        </mxCell>
        <mxCell id="ei9Jw1yKz31l8ufhNIbt-52" style="edgeStyle=orthogonalEdgeStyle;rounded=0;orthogonalLoop=1;jettySize=auto;html=1;entryX=0;entryY=0;entryDx=0;entryDy=0;" edge="1" parent="1" source="ei9Jw1yKz31l8ufhNIbt-24" target="ei9Jw1yKz31l8ufhNIbt-51">
          <mxGeometry relative="1" as="geometry">
            <mxPoint x="340" y="1482" as="targetPoint" />
            <Array as="points">
              <mxPoint x="341" y="980" />
              <mxPoint x="341" y="1479" />
            </Array>
          </mxGeometry>
        </mxCell>
        <mxCell id="ei9Jw1yKz31l8ufhNIbt-24" value="print(roots are same and real)" style="shape=parallelogram;perimeter=parallelogramPerimeter;whiteSpace=wrap;html=1;fixedSize=1;" vertex="1" parent="1">
          <mxGeometry x="60" y="950" width="240" height="60" as="geometry" />
        </mxCell>
        <mxCell id="ei9Jw1yKz31l8ufhNIbt-27" style="edgeStyle=orthogonalEdgeStyle;rounded=0;orthogonalLoop=1;jettySize=auto;html=1;" edge="1" parent="1" source="ei9Jw1yKz31l8ufhNIbt-26">
          <mxGeometry relative="1" as="geometry">
            <mxPoint x="175" y="1190" as="targetPoint" />
          </mxGeometry>
        </mxCell>
        <mxCell id="ei9Jw1yKz31l8ufhNIbt-53" style="edgeStyle=orthogonalEdgeStyle;rounded=0;orthogonalLoop=1;jettySize=auto;html=1;entryX=0;entryY=0.5;entryDx=0;entryDy=0;" edge="1" parent="1" source="ei9Jw1yKz31l8ufhNIbt-26" target="ei9Jw1yKz31l8ufhNIbt-51">
          <mxGeometry relative="1" as="geometry">
            <mxPoint x="320" y="1521" as="targetPoint" />
            <Array as="points">
              <mxPoint x="321" y="1100" />
              <mxPoint x="321" y="1500" />
            </Array>
          </mxGeometry>
        </mxCell>
        <mxCell id="ei9Jw1yKz31l8ufhNIbt-26" value="print(root1)&lt;div&gt;print(root2)&lt;/div&gt;" style="shape=parallelogram;perimeter=parallelogramPerimeter;whiteSpace=wrap;html=1;fixedSize=1;" vertex="1" parent="1">
          <mxGeometry x="60" y="1070" width="230" height="60" as="geometry" />
        </mxCell>
        <mxCell id="ei9Jw1yKz31l8ufhNIbt-54" style="edgeStyle=orthogonalEdgeStyle;rounded=0;orthogonalLoop=1;jettySize=auto;html=1;entryX=0;entryY=1;entryDx=0;entryDy=0;" edge="1" parent="1" source="ei9Jw1yKz31l8ufhNIbt-29" target="ei9Jw1yKz31l8ufhNIbt-51">
          <mxGeometry relative="1" as="geometry">
            <mxPoint x="300" y="1520" as="targetPoint" />
            <Array as="points">
              <mxPoint x="301" y="1220" />
              <mxPoint x="301" y="1521" />
            </Array>
          </mxGeometry>
        </mxCell>
        <mxCell id="ei9Jw1yKz31l8ufhNIbt-29" value="print(result)" style="shape=parallelogram;perimeter=parallelogramPerimeter;whiteSpace=wrap;html=1;fixedSize=1;" vertex="1" parent="1">
          <mxGeometry x="95" y="1190" width="160" height="60" as="geometry" />
        </mxCell>
        <mxCell id="ei9Jw1yKz31l8ufhNIbt-34" style="edgeStyle=orthogonalEdgeStyle;rounded=0;orthogonalLoop=1;jettySize=auto;html=1;" edge="1" parent="1" source="ei9Jw1yKz31l8ufhNIbt-33">
          <mxGeometry relative="1" as="geometry">
            <mxPoint x="470" y="1070" as="targetPoint" />
            <Array as="points">
              <mxPoint x="470" y="980" />
              <mxPoint x="470" y="1070" />
            </Array>
          </mxGeometry>
        </mxCell>
        <mxCell id="ei9Jw1yKz31l8ufhNIbt-49" value="Y" style="edgeLabel;html=1;align=center;verticalAlign=middle;resizable=0;points=[];" vertex="1" connectable="0" parent="ei9Jw1yKz31l8ufhNIbt-34">
          <mxGeometry x="-0.4286" y="-1" relative="1" as="geometry">
            <mxPoint as="offset" />
          </mxGeometry>
        </mxCell>
        <mxCell id="ei9Jw1yKz31l8ufhNIbt-40" style="edgeStyle=orthogonalEdgeStyle;rounded=0;orthogonalLoop=1;jettySize=auto;html=1;" edge="1" parent="1" source="ei9Jw1yKz31l8ufhNIbt-33">
          <mxGeometry relative="1" as="geometry">
            <mxPoint x="850" y="1060" as="targetPoint" />
            <Array as="points">
              <mxPoint x="850" y="980" />
              <mxPoint x="850" y="1060" />
            </Array>
          </mxGeometry>
        </mxCell>
        <mxCell id="ei9Jw1yKz31l8ufhNIbt-50" value="N" style="edgeLabel;html=1;align=center;verticalAlign=middle;resizable=0;points=[];" vertex="1" connectable="0" parent="ei9Jw1yKz31l8ufhNIbt-40">
          <mxGeometry x="-0.3586" relative="1" as="geometry">
            <mxPoint as="offset" />
          </mxGeometry>
        </mxCell>
        <mxCell id="ei9Jw1yKz31l8ufhNIbt-33" value="if D&amp;gt;0" style="rhombus;whiteSpace=wrap;html=1;" vertex="1" parent="1">
          <mxGeometry x="520" y="940" width="120" height="80" as="geometry" />
        </mxCell>
        <mxCell id="ei9Jw1yKz31l8ufhNIbt-57" style="edgeStyle=orthogonalEdgeStyle;rounded=0;orthogonalLoop=1;jettySize=auto;html=1;" edge="1" parent="1" source="ei9Jw1yKz31l8ufhNIbt-35">
          <mxGeometry relative="1" as="geometry">
            <mxPoint x="620" y="1460" as="targetPoint" />
          </mxGeometry>
        </mxCell>
        <mxCell id="ei9Jw1yKz31l8ufhNIbt-35" value="print(roots are real and distinct)" style="shape=parallelogram;perimeter=parallelogramPerimeter;whiteSpace=wrap;html=1;fixedSize=1;" vertex="1" parent="1">
          <mxGeometry x="380" y="1070" width="190" height="60" as="geometry" />
        </mxCell>
        <mxCell id="ei9Jw1yKz31l8ufhNIbt-36" style="edgeStyle=orthogonalEdgeStyle;rounded=0;orthogonalLoop=1;jettySize=auto;html=1;" edge="1" parent="1">
          <mxGeometry relative="1" as="geometry">
            <mxPoint x="470" y="1190" as="targetPoint" />
            <mxPoint x="470" y="1130" as="sourcePoint" />
          </mxGeometry>
        </mxCell>
        <mxCell id="ei9Jw1yKz31l8ufhNIbt-37" style="edgeStyle=orthogonalEdgeStyle;rounded=0;orthogonalLoop=1;jettySize=auto;html=1;" edge="1" parent="1" source="ei9Jw1yKz31l8ufhNIbt-38">
          <mxGeometry relative="1" as="geometry">
            <mxPoint x="465" y="1320" as="targetPoint" />
          </mxGeometry>
        </mxCell>
        <mxCell id="ei9Jw1yKz31l8ufhNIbt-56" style="edgeStyle=orthogonalEdgeStyle;rounded=0;orthogonalLoop=1;jettySize=auto;html=1;" edge="1" parent="1" source="ei9Jw1yKz31l8ufhNIbt-38">
          <mxGeometry relative="1" as="geometry">
            <mxPoint x="600" y="1460" as="targetPoint" />
          </mxGeometry>
        </mxCell>
        <mxCell id="ei9Jw1yKz31l8ufhNIbt-38" value="print(root1)&lt;div&gt;print(root2)&lt;/div&gt;" style="shape=parallelogram;perimeter=parallelogramPerimeter;whiteSpace=wrap;html=1;fixedSize=1;" vertex="1" parent="1">
          <mxGeometry x="350" y="1190" width="230" height="60" as="geometry" />
        </mxCell>
        <mxCell id="ei9Jw1yKz31l8ufhNIbt-55" style="edgeStyle=orthogonalEdgeStyle;rounded=0;orthogonalLoop=1;jettySize=auto;html=1;entryX=0;entryY=0;entryDx=0;entryDy=0;" edge="1" parent="1" source="ei9Jw1yKz31l8ufhNIbt-39" target="ei9Jw1yKz31l8ufhNIbt-51">
          <mxGeometry relative="1" as="geometry" />
        </mxCell>
        <mxCell id="ei9Jw1yKz31l8ufhNIbt-39" value="print(result)" style="shape=parallelogram;perimeter=parallelogramPerimeter;whiteSpace=wrap;html=1;fixedSize=1;" vertex="1" parent="1">
          <mxGeometry x="380" y="1320" width="160" height="60" as="geometry" />
        </mxCell>
        <mxCell id="ei9Jw1yKz31l8ufhNIbt-58" style="edgeStyle=orthogonalEdgeStyle;rounded=0;orthogonalLoop=1;jettySize=auto;html=1;" edge="1" parent="1" source="ei9Jw1yKz31l8ufhNIbt-44" target="ei9Jw1yKz31l8ufhNIbt-51">
          <mxGeometry relative="1" as="geometry">
            <mxPoint x="670" y="1480" as="targetPoint" />
            <Array as="points">
              <mxPoint x="671" y="1090" />
              <mxPoint x="671" y="1480" />
            </Array>
          </mxGeometry>
        </mxCell>
        <mxCell id="ei9Jw1yKz31l8ufhNIbt-44" value="print(roots are imaginary or&lt;div&gt;complex)&lt;/div&gt;" style="shape=parallelogram;perimeter=parallelogramPerimeter;whiteSpace=wrap;html=1;fixedSize=1;" vertex="1" parent="1">
          <mxGeometry x="760" y="1060" width="190" height="60" as="geometry" />
        </mxCell>
        <mxCell id="ei9Jw1yKz31l8ufhNIbt-45" style="edgeStyle=orthogonalEdgeStyle;rounded=0;orthogonalLoop=1;jettySize=auto;html=1;" edge="1" parent="1">
          <mxGeometry relative="1" as="geometry">
            <mxPoint x="850" y="1180" as="targetPoint" />
            <mxPoint x="850" y="1120" as="sourcePoint" />
          </mxGeometry>
        </mxCell>
        <mxCell id="ei9Jw1yKz31l8ufhNIbt-46" style="edgeStyle=orthogonalEdgeStyle;rounded=0;orthogonalLoop=1;jettySize=auto;html=1;" edge="1" parent="1" source="ei9Jw1yKz31l8ufhNIbt-47">
          <mxGeometry relative="1" as="geometry">
            <mxPoint x="845" y="1310" as="targetPoint" />
          </mxGeometry>
        </mxCell>
        <mxCell id="ei9Jw1yKz31l8ufhNIbt-59" style="edgeStyle=orthogonalEdgeStyle;rounded=0;orthogonalLoop=1;jettySize=auto;html=1;entryX=1;entryY=0.5;entryDx=0;entryDy=0;" edge="1" parent="1" source="ei9Jw1yKz31l8ufhNIbt-47" target="ei9Jw1yKz31l8ufhNIbt-51">
          <mxGeometry relative="1" as="geometry">
            <mxPoint x="690" y="1500" as="targetPoint" />
            <Array as="points">
              <mxPoint x="691" y="1210" />
              <mxPoint x="691" y="1500" />
            </Array>
          </mxGeometry>
        </mxCell>
        <mxCell id="ei9Jw1yKz31l8ufhNIbt-47" value="print(root1)&lt;div&gt;print(root2)&lt;/div&gt;" style="shape=parallelogram;perimeter=parallelogramPerimeter;whiteSpace=wrap;html=1;fixedSize=1;" vertex="1" parent="1">
          <mxGeometry x="730" y="1180" width="230" height="60" as="geometry" />
        </mxCell>
        <mxCell id="ei9Jw1yKz31l8ufhNIbt-60" style="edgeStyle=orthogonalEdgeStyle;rounded=0;orthogonalLoop=1;jettySize=auto;html=1;entryX=1;entryY=1;entryDx=0;entryDy=0;" edge="1" parent="1" source="ei9Jw1yKz31l8ufhNIbt-48" target="ei9Jw1yKz31l8ufhNIbt-51">
          <mxGeometry relative="1" as="geometry">
            <mxPoint x="840" y="1520" as="targetPoint" />
            <Array as="points">
              <mxPoint x="840" y="1460" />
              <mxPoint x="841" y="1460" />
              <mxPoint x="841" y="1521" />
            </Array>
          </mxGeometry>
        </mxCell>
        <mxCell id="ei9Jw1yKz31l8ufhNIbt-48" value="print(result)" style="shape=parallelogram;perimeter=parallelogramPerimeter;whiteSpace=wrap;html=1;fixedSize=1;" vertex="1" parent="1">
          <mxGeometry x="760" y="1310" width="160" height="60" as="geometry" />
        </mxCell>
        <mxCell id="ei9Jw1yKz31l8ufhNIbt-62" style="edgeStyle=orthogonalEdgeStyle;rounded=0;orthogonalLoop=1;jettySize=auto;html=1;entryX=0.5;entryY=0;entryDx=0;entryDy=0;" edge="1" parent="1" source="ei9Jw1yKz31l8ufhNIbt-51" target="ei9Jw1yKz31l8ufhNIbt-61">
          <mxGeometry relative="1" as="geometry" />
        </mxCell>
        <mxCell id="ei9Jw1yKz31l8ufhNIbt-51" value="" style="ellipse;whiteSpace=wrap;html=1;aspect=fixed;" vertex="1" parent="1">
          <mxGeometry x="570" y="1470" width="60" height="60" as="geometry" />
        </mxCell>
        <mxCell id="ei9Jw1yKz31l8ufhNIbt-61" value="&lt;font size=&quot;3&quot;&gt;STOP&lt;/font&gt;" style="ellipse;whiteSpace=wrap;html=1;" vertex="1" parent="1">
          <mxGeometry x="550" y="1590" width="100" height="60" as="geometry" />
        </mxCell>
      </root>
    </mxGraphModel>
  </diagram>
</mxfile>
